<svg height="512pt" viewBox="0 0 512 512" width="512pt" xmlns="http://www.w3.org/2000/svg" xmlns:xlink="http://www.w3.org/1999/xlink"><linearGradient id="a" gradientUnits="userSpaceOnUse" x1="0" x2="512" y1="256" y2="256"><stop offset="0" stop-color="#00f38d"/><stop offset="1" stop-color="#009eff"/></linearGradient><path d="m512 256c0 141.386719-114.613281 256-256 256s-256-114.613281-256-256 114.613281-256 256-256 256 114.613281 256 256zm0 0" fill="url(#a)"/><g fill="#fff"><path d="m336.625 344.710938-21.207031-21.222657 67.234375-67.1875-67.285156-67.890625 21.308593-21.121094 88.3125 89.113282zm0 0"/><path d="m175.375 344.710938-88.363281-88.308594 88.3125-89.113282 21.308593 21.121094-67.285156 67.890625 67.234375 67.1875zm0 0"/><path d="m256 243.332031c-7.148438 0-12.96875 5.816407-12.96875 12.96875 0 7.148438 5.820312 12.964844 12.96875 12.964844s12.96875-5.816406 12.96875-12.964844c0-7.152343-5.820312-12.96875-12.96875-12.96875zm0 0"/><path d="m307.867188 243.332031c-7.148438 0-12.96875 5.816407-12.96875 12.96875 0 7.148438 5.820312 12.964844 12.96875 12.964844 7.148437 0 12.96875-5.816406 12.96875-12.964844 0-7.152343-5.820313-12.96875-12.96875-12.96875zm0 0"/><path d="m204.132812 243.332031c-7.148437 0-12.96875 5.816407-12.96875 12.96875 0 7.148438 5.820313 12.964844 12.96875 12.964844 7.148438 0 12.96875-5.816406 12.96875-12.964844 0-7.152343-5.820312-12.96875-12.96875-12.96875zm0 0"/></g></svg>